<svg xmlns="http://www.w3.org/2000/svg" width="39" height="39" viewBox="0 0 39 39">
  <g id="Group_1419" data-name="Group 1419" transform="translate(-346 -3996)">
    <rect id="Rectangle_671" data-name="Rectangle 671" width="39" height="39" rx="4" transform="translate(346 3996)" fill="#fff"/>
    <g id="mail" transform="translate(353.005 4004.822)">
      <path id="Path_50" data-name="Path 50" d="M4.408,3H22.583A3.412,3.412,0,0,1,25.99,6.408V20.039a3.412,3.412,0,0,1-3.408,3.408H4.408A3.412,3.412,0,0,1,1,20.039V6.408A3.412,3.412,0,0,1,4.408,3ZM22.583,21.175a1.137,1.137,0,0,0,1.136-1.136V6.408a1.137,1.137,0,0,0-1.136-1.136H4.408A1.137,1.137,0,0,0,3.272,6.408V20.039a1.137,1.137,0,0,0,1.136,1.136Z" transform="translate(-1 -3)" fill="#bd9c00"/>
      <path id="Path_51" data-name="Path 51" d="M11.535,15.223a.857.857,0,0,1-.549-.205L1.409,7.067a1.275,1.275,0,0,1-.235-1.582.867.867,0,0,1,1.334-.279l9.028,7.5,9.028-7.5a.867.867,0,0,1,1.334.279,1.275,1.275,0,0,1-.235,1.582l-9.578,7.952A.857.857,0,0,1,11.535,15.223Z" transform="translate(0.851 -2.728)" fill="#bd9c00"/>
    </g>
  </g>
</svg>
