<svg xmlns="http://www.w3.org/2000/svg" width="39" height="39" viewBox="0 0 39 39">
  <g id="Group_1418" data-name="Group 1418" transform="translate(-720 -3994)">
    <rect id="Rectangle_725" data-name="Rectangle 725" width="39" height="39" rx="4" transform="translate(720 3994)" fill="#fff"/>
    <g id="map-pin" transform="translate(727.749 3999.099)">
      <path id="Path_5" data-name="Path 5" d="M14.061,0A12.075,12.075,0,0,1,26.123,12.061a13.784,13.784,0,0,1-1.843,6.589A25.523,25.523,0,0,1,20.365,23.9a36.6,36.6,0,0,1-5.634,4.848,1.206,1.206,0,0,1-1.338,0A36.6,36.6,0,0,1,7.758,23.9a25.523,25.523,0,0,1-3.915-5.246A13.783,13.783,0,0,1,2,12.061,12.075,12.075,0,0,1,14.061,0Zm0,26.258c2.288-1.7,9.649-7.668,9.649-14.2a9.649,9.649,0,1,0-19.3,0C4.412,18.591,11.773,24.561,14.061,26.258Z" transform="translate(-2)" fill="#bd9c00"/>
      <path id="Ellipse_1" data-name="Ellipse 1" d="M3.825-1A4.825,4.825,0,1,1-1,3.825,4.83,4.83,0,0,1,3.825-1Zm0,7.237A2.412,2.412,0,1,0,1.412,3.825,2.415,2.415,0,0,0,3.825,6.237Z" transform="translate(8.237 8.237)" fill="#bd9c00"/>
    </g>
  </g>
</svg>
