<svg id="Mention-amico_1_" data-name="Mention-amico (1)" xmlns="http://www.w3.org/2000/svg" xmlns:xlink="http://www.w3.org/1999/xlink" width="380.806" height="380.093" viewBox="0 0 380.806 380.093">
  <defs>
    <clipPath id="clip-path">
      <path id="Path_6241" data-name="Path 6241" d="M261.889,108.634c19.234-11.145,34.819-2.1,34.819,20.107s-15.584,49.224-34.819,60.313-34.819,2.1-34.819-20.107S242.654,119.779,261.889,108.634Z" transform="translate(-227.07 -103.86)" fill="#f5f5f5"/>
    </clipPath>
  </defs>
  <g id="freepik--Floor--inject-29" transform="translate(0 198.595)">
    <path id="freepik--SUELO--inject-29" d="M105.726,414.116c74.393,35.45,194.945,35.45,269.338,0s74.3-92.875,0-128.325-194.908-35.441-269.263,0S31.426,378.684,105.726,414.116Z" transform="translate(-50.017 -259.206)" fill="#f6db5a" opacity="0.38"/>
  </g>
  <g id="freepik--Cloud--inject-29" transform="translate(290.971 62.735)">
    <path id="freepik--nube--inject-29" d="M367.74,140.207l3.418-2.628v-7.523c0-5.953,4.746-12.872,9.91-15.854h0c5.164-2.981,9.353-.567,9.353,5.4v1.087a13.309,13.309,0,0,1,4.328-4.337h0c3.715-2.145,6.733-.409,6.733,3.882v.5l6.836-3.947c2.443-1.412,4.43-.269,4.43,2.554a9.8,9.8,0,0,1-4.43,7.671L367.74,150.433c-2.443,1.412-4.43.269-4.43-2.554a9.8,9.8,0,0,1,4.43-7.671Z" transform="translate(-363.31 -112.925)" fill="#f6db5a" opacity="0.48"/>
  </g>
  <g id="freepik--Plants--inject-29" transform="translate(26.671 177.511)">
    <g id="freepik--HOJAS--inject-29">
      <path id="Path_6182" data-name="Path 6182" d="M102.283,358.124c-.483-.084-.994-.232-1.57-.381a58.661,58.661,0,0,1-5.73-1.858,41.859,41.859,0,0,1-10.486-5.6,17.033,17.033,0,0,1-4.439-4.644,8.452,8.452,0,0,1-1.161-6.195,5.665,5.665,0,0,1,4.328-4.3c.994-.158,2.025,0,3.018-.176a2.4,2.4,0,0,0,2.145-1.858,3.074,3.074,0,0,0-.446-1.616A74.818,74.818,0,0,1,83.3,321.216a16.03,16.03,0,0,1-.186-9.77,16.56,16.56,0,0,1,5-8.238c1.114-.929,2.656-1.727,4-1.142a3.334,3.334,0,0,1,1.727,2.183,13.2,13.2,0,0,1,.316,2.842,24.352,24.352,0,0,0,1.17,6.046,5.452,5.452,0,0,0,1.988,3.074c1.727,1.077,4.105.232,5.944,1.105s2.47,2.879,2.554,4.774-.3,3.808-.084,5.693a3.5,3.5,0,0,0,.548,1.672,7.366,7.366,0,0,0,1.755,1.384,7.43,7.43,0,0,1,2.693,5.833,20.136,20.136,0,0,1-1.254,6.5,57.584,57.584,0,0,0-1.857,8.9,10.68,10.68,0,0,1-2.266,5.025,2.9,2.9,0,0,1-3.065,1.031Z" transform="translate(-78.734 -241.162)" fill="#f6db5a"/>
      <path id="Path_6183" data-name="Path 6183" d="M106.191,356.837a.316.316,0,0,1-.269-.158c-10.839-18.278-14.266-31.15-15.241-38.738-1.068-8.266.437-12.139.5-12.3a.319.319,0,1,1,.594.232c0,.065-1.5,3.956-.455,12.074.929,7.514,4.4,20.275,15.148,38.413a.316.316,0,0,1-.111.437.381.381,0,0,1-.167.037Z" transform="translate(-79.558 -241.417)" fill="#fff"/>
      <path id="Path_6184" data-name="Path 6184" d="M99.851,348.87h0c-13.207-1.449-16.94-5.786-17.1-5.972a.316.316,0,0,1,0-.446.307.307,0,0,1,.446,0h0c0,.046,3.771,4.328,16.671,5.749a.325.325,0,0,1,0,.641Z" transform="translate(-79.014 -244.047)" fill="#fff"/>
      <path id="Path_6185" data-name="Path 6185" d="M97.136,339.325a.325.325,0,0,1-.2-.065.316.316,0,0,1-.056-.446c4.189-5.508,4.458-14.535,4.467-14.628a.316.316,0,1,1,.632.019c0,.381-.279,9.287-4.588,14.99A.325.325,0,0,1,97.136,339.325Z" transform="translate(-80.023 -242.731)" fill="#fff"/>
      <path id="Path_6186" data-name="Path 6186" d="M387.918,297.018c1.282-8.637,1.3-19.179-5.043-34.577s-4.374-23.47,2.424-25.671,21.863,9.492,21.306,29.153c-.548,18.984-13.374,34.661-13.374,34.661Z" transform="translate(-100.13 -236.505)" fill="#f6db5a"/>
      <path id="Path_6187" data-name="Path 6187" d="M387.918,297.018c1.282-8.637,1.3-19.179-5.043-34.577s-4.374-23.47,2.424-25.671,21.863,9.492,21.306,29.153c-.548,18.984-13.374,34.661-13.374,34.661Z" transform="translate(-100.13 -236.505)" fill="#f6db5a" opacity="0.1"/>
      <path id="Path_6188" data-name="Path 6188" d="M391.868,299.916a.289.289,0,0,1-.121,0,.307.307,0,0,1-.167-.418c.065-.158,7.012-16.383,6.5-31.113-.576-16.95-9.966-26.274-10.058-26.367a.319.319,0,1,1,.446-.455c.093.093,9.659,9.575,10.216,26.8.511,14.86-6.5,31.225-6.557,31.382a.325.325,0,0,1-.26.167Z" transform="translate(-100.764 -236.859)" fill="#fff"/>
      <path id="Path_6189" data-name="Path 6189" d="M389,306.516s3.585-20.878,16.309-32.878,33.937-14.284,40.586-7.876,2.387,12.64-6.984,14.8c-10.588,2.443-17.08,6.715-10.588,9.984,6.028,3.028,5.35,9.594-.929,12.742-10.03,5.034-28.141.241-32.506,10.142Z" transform="translate(-100.84 -238.341)" fill="#f6db5a"/>
      <path id="Path_6190" data-name="Path 6190" d="M391.876,311.5h-.1a.325.325,0,0,1-.2-.409,65.738,65.738,0,0,1,13.3-22.076,61.641,61.641,0,0,1,15.882-12.343,57.88,57.88,0,0,1,18.965-6.5.325.325,0,0,1,.353.288.316.316,0,0,1-.279.353,57.23,57.23,0,0,0-18.761,6.5c-9.288,5.043-21.891,15.046-28.884,34.039a.334.334,0,0,1-.279.149Z" transform="translate(-101.023 -238.904)" fill="#fff"/>
      <path id="Path_6191" data-name="Path 6191" d="M398.825,300.3a.32.32,0,0,1-.111-.622c10.857-3.789,26.423-1.8,26.581-1.783a.319.319,0,1,1-.084.632c-.149,0-15.575-1.988-26.284,1.755a.2.2,0,0,1-.1.019Z" transform="translate(-101.517 -240.841)" fill="#fff"/>
    </g>
  </g>
  <g id="freepik--social-media--inject-29" transform="translate(16.999 12.77)">
    <g id="freepik--redes-sociales--inject-29">
      <path id="Path_6192" data-name="Path 6192" d="M114.878,69.225a9.139,9.139,0,0,0-4.133-7.161l-3.371-1.95a9.13,9.13,0,0,0-8.266,0L72.444,75.5a8.554,8.554,0,0,0-3.009,3.241,8.8,8.8,0,0,0-1.114,3.427v31.28a9.139,9.139,0,0,0,4.142,7.161l3.362,1.95.427.223.158.065.288.121.223.084.241.084.269.074.2.056.316.074h.158l.381.065h.074a8.981,8.981,0,0,0,5.573-.882l26.609-15.352a9.157,9.157,0,0,0,4.142-7.17Z" transform="translate(-68.32 -59.125)" fill="#f6db5a"/>
      <path id="Path_6193" data-name="Path 6193" d="M81.241,85.32a9.287,9.287,0,0,0-1.059,2.545,9.288,9.288,0,0,1,3.984-5.638l26.664-15.389c2.285-1.319,4.142-.251,4.142,2.387a9.139,9.139,0,0,0-4.142-7.161l-3.371-1.95a9.13,9.13,0,0,0-8.266,0L72.529,75.5a8.554,8.554,0,0,0-3.009,3.241L69.6,78.6Z" transform="translate(-68.406 -59.125)" fill="#fff" opacity="0.4"/>
      <path id="Path_6194" data-name="Path 6194" d="M83.226,124.447l-.2.056h0l-.334.065h-.641a2,2,0,0,1-1.059-.4h0l-.149-.139-.084-.074-.111-.139-.093-.121-.093-.149-.084-.149a.231.231,0,0,0-.065-.158,1.43,1.43,0,0,1-.074-.176l-.149-.149v-.353a2.357,2.357,0,0,1,0-.269.724.724,0,0,1,0-.149q0-.209,0-.446V90.891a6.065,6.065,0,0,1,.084-.994h0a.67.67,0,0,1,.074-.371v-.149a9.288,9.288,0,0,1,1.022-2.545L69.518,80.09l-.084.149a8.8,8.8,0,0,0-1.115,3.427v31.28a9.139,9.139,0,0,0,4.142,7.161l3.362,1.95.427.223.158.065.288.121.223.084.241.084.269.074.2.056.316.074h.158l.381.065h.074a9.538,9.538,0,0,0,4.662-.455Z" transform="translate(-68.32 -60.619)" opacity="0.1"/>
      <path id="Path_6195" data-name="Path 6195" d="M104.642,98.937a30.649,30.649,0,0,0,2.675-12.65,23.794,23.794,0,0,0,2.183-4.282,15.789,15.789,0,0,1-2.517,2.368A11.628,11.628,0,0,0,108.905,80a17.135,17.135,0,0,1-2.786,3.028,2.684,2.684,0,0,0-3.2,0c-2.786,1.635-4.9,6.353-4.263,9.64-3.641,1.857-6.873,1.393-9.027-.929-1.152,3.288-.594,6.408,1.356,7.012a3.1,3.1,0,0,1-1.988.418c0,2.786,1.4,4.43,3.511,3.771a5.312,5.312,0,0,1-1.978,1.245c.557,2,2.173,2.786,4.1,1.7a15.139,15.139,0,0,1-6.5,6.158,8.744,8.744,0,0,0,6.715-1.254c4.328-2.5,7.653-7.021,9.78-11.916" transform="translate(-69.731 -60.612)" fill="#fff"/>
      <path id="Path_6196" data-name="Path 6196" d="M114.879,189.9a9.139,9.139,0,0,0-4.133-7.124l-3.371-1.95a9.13,9.13,0,0,0-8.266,0L72.454,196.214a8.554,8.554,0,0,0-3.009,3.241,8.8,8.8,0,0,0-1.115,3.427v31.28a9.139,9.139,0,0,0,4.114,7.124l3.362,1.95.427.214.158.074.288.121.223.084.241.084.269.074.2.056.316.074h.158l.381.065h.074a8.981,8.981,0,0,0,5.573-.929l26.627-15.306a9.158,9.158,0,0,0,4.142-7.17Z" transform="translate(-68.321 -67.726)" fill="#f6db5a"/>
      <path id="Path_6197" data-name="Path 6197" d="M81.242,205.993a9.288,9.288,0,0,0-1.022,2.545,9.287,9.287,0,0,1,3.947-5.638l26.664-15.389c2.285-1.319,4.142-.251,4.142,2.387a9.139,9.139,0,0,0-4.142-7.124l-3.371-1.95a9.13,9.13,0,0,0-8.266,0L72.539,196.214a8.554,8.554,0,0,0-3.009,3.241l.084-.149Z" transform="translate(-68.406 -67.726)" fill="#fff" opacity="0.4"/>
      <path id="Path_6198" data-name="Path 6198" d="M83.239,245.119l-.2.056h0a2.164,2.164,0,0,1-.334.074h-.641a2,2,0,0,1-1.059-.4h0l-.149-.139-.084-.074-.111-.149-.093-.111-.093-.149-.084-.149a.171.171,0,0,0-.065-.158,1.1,1.1,0,0,1-.074-.186l-.056-.158-.056-.223V243.2a2.355,2.355,0,0,1,0-.269.725.725,0,0,1,0-.149V211.563a6.064,6.064,0,0,1,.084-.994h0a.655.655,0,0,1,.074-.372v-.149a9.287,9.287,0,0,1,1.022-2.545L69.688,200.78l-.084.149a8.8,8.8,0,0,0-1.114,3.427v31.28a9.139,9.139,0,0,0,3.966,7.142l3.362,1.95.427.214.158.074.288.121.223.084.241.084.269.074.2.056.316.074H78.1l.381.065h.074A9.538,9.538,0,0,0,83.239,245.119Z" transform="translate(-68.332 -69.218)" opacity="0.1"/>
      <path id="Path_6199" data-name="Path 6199" d="M98.853,205.568c2.731-1.579,3.056-1.746,4.133-2.3a4.643,4.643,0,0,1,1.858-.632,1.616,1.616,0,0,1,1.17.344,2.164,2.164,0,0,1,.771,1.124,7.532,7.532,0,0,1,.353,2.331c.046,1.4.056,1.858.056,5.47s0,4.068-.056,5.572a12.445,12.445,0,0,1-.353,2.731,8.219,8.219,0,0,1-.771,2.006,7.337,7.337,0,0,1-1.17,1.7,9.018,9.018,0,0,1-1.857,1.56c-1.077.687-1.4.929-4.133,2.461s-3.046,1.755-4.124,2.313a4.643,4.643,0,0,1-1.858.622,1.635,1.635,0,0,1-1.18-.344,2.2,2.2,0,0,1-.762-1.124,7.5,7.5,0,0,1-.353-2.322c0-1.412-.065-1.858-.065-5.47s0-4.077.065-5.572a12.64,12.64,0,0,1,.353-2.786,8.749,8.749,0,0,1,.762-2.006,7.792,7.792,0,0,1,1.18-1.7,8.777,8.777,0,0,1,1.858-1.56c1.077-.687,1.4-.929,4.124-2.461m0-2.452c-2.786,1.6-3.121,1.857-4.207,2.508a11.824,11.824,0,0,0-2.48,2.071,11.507,11.507,0,0,0-1.858,2.61,13.569,13.569,0,0,0-1.18,3.093,16.468,16.468,0,0,0-.474,3.585c0,1.477-.065,1.95-.065,5.647s0,4.161.065,5.572a9.981,9.981,0,0,0,.473,3.035,3.464,3.464,0,0,0,1.18,1.729,2.573,2.573,0,0,0,1.857.529,6.167,6.167,0,0,0,2.48-.8c1.087-.567,1.43-.752,4.207-2.35s3.121-1.857,4.217-2.517a11.814,11.814,0,0,0,4.291-4.644,13.364,13.364,0,0,0,1.17-3.093,16.319,16.319,0,0,0,.483-3.576c0-1.486.056-1.96.056-5.656s0-4.152-.056-5.573a9.808,9.808,0,0,0-.483-3.028,3.511,3.511,0,0,0-1.17-1.737,2.554,2.554,0,0,0-1.857-.52,6.018,6.018,0,0,0-2.48.8c-1.1.557-1.44.743-4.217,2.35m0,6.622c-2.9,1.672-5.247,6.158-5.247,10.021s2.35,5.638,5.247,3.966,5.247-6.158,5.247-10.021-2.35-5.638-5.247-3.966m0,11.535c-1.857,1.087-3.4-.065-3.4-2.573s1.523-5.424,3.4-6.5,3.409.065,3.409,2.582a8.122,8.122,0,0,1-3.409,6.5m6.678-15.668c0-.929-.548-1.319-1.226-.929a2.935,2.935,0,0,0-1.226,2.35c0,.929.548,1.31,1.226.929a2.935,2.935,0,0,0,1.226-2.34" transform="translate(-69.764 -69.158)" fill="#fff"/>
      <path id="Path_6200" data-name="Path 6200" d="M164.842,112.735a9.13,9.13,0,0,0-4.1-7.161l-3.371-1.95a9.148,9.148,0,0,0-8.275,0l-26.655,15.389a9.353,9.353,0,0,0-4.114,6.668q0,.251,0,.5v30.779a9.13,9.13,0,0,0,4.133,7.161l3.371,1.95.427.223.158.065.288.121.214.084.251.084.26.074.214.056.316.074h.158l.381.065h.074a8.99,8.99,0,0,0,5.573-.882l26.6-15.352a9.148,9.148,0,0,0,4.133-7.17Z" transform="translate(-71.883 -62.225)" fill="#f6db5a"/>
      <path id="Path_6201" data-name="Path 6201" d="M131.214,128.83a9.641,9.641,0,0,0-1.031,2.545,9.287,9.287,0,0,1,3.956-5.638l26.692-15.389c2.285-1.319,4.133-.251,4.133,2.387a9.13,9.13,0,0,0-4.133-7.161l-3.371-1.95a9.148,9.148,0,0,0-8.275,0L122.53,119.014a8.6,8.6,0,0,0-3,3.241l.074-.149Z" transform="translate(-71.969 -62.225)" fill="#fff" opacity="0.4"/>
      <path id="Path_6202" data-name="Path 6202" d="M133.2,167.959l-.2.056h0a2.051,2.051,0,0,1-.325.074h-.715a1.988,1.988,0,0,1-1.049-.4h0l-.149-.139-.084-.074-.121-.149-.084-.111a.8.8,0,0,1-.093-.149l-.084-.149a.168.168,0,0,0-.074-.158l-.065-.176-.056-.167a.536.536,0,0,0-.056-.223.787.787,0,0,1,0-.158,2.36,2.36,0,0,1,0-.269.723.723,0,0,1,0-.149,3.5,3.5,0,0,1,0-.446V134.4a7.291,7.291,0,0,1,.084-.994h0a.735.735,0,0,1,.065-.371,1.023,1.023,0,0,0,0-.149,9.64,9.64,0,0,1,1.031-2.545l-11.647-6.724-.074.149a8.647,8.647,0,0,0-1.115,3.427q0,.251,0,.5v30.779a9.13,9.13,0,0,0,4.133,7.161l3.371,1.95.427.223.158.065.288.121.214.084.251.084.26.074.214.056.316.074h.158l.381.065h.074a9.538,9.538,0,0,0,4.569-.474Z" transform="translate(-71.887 -63.72)" opacity="0.1"/>
      <path id="Path_6203" data-name="Path 6203" d="M146.331,156.71l4.449-2.573v-14.86l3.1-1.792.325-5.164L150.78,134.3v-2.833c0-1.17.176-1.737,1.022-2.22l2.405-1.393V122.69l-3.074,1.783a9.018,9.018,0,0,0-4.8,8.433v4L144,138.219v5.034l2.313-1.328Z" transform="translate(-73.712 -63.654)" fill="#fff"/>
    </g>
  </g>
  <g id="freepik--Device--inject-29" transform="translate(48.056 174.203)">
    <g id="freepik--MÓVIL--inject-29">
      <path id="freepik--sombra-movil--inject-29" d="M103.432,360.207l106.556,61.5a8.916,8.916,0,0,0,8.08,0L384.24,325.779c2.229-1.291,2.229-3.371,0-4.644L277.684,259.6a8.9,8.9,0,0,0-8.071,0L103.432,355.564C101.2,356.827,101.2,358.907,103.432,360.207Z" transform="translate(-101.76 -234.773)" fill="#e0e0e0"/>
      <path id="Path_6204" data-name="Path 6204" d="M107.04,344.294l103.537,59.784a9.027,9.027,0,0,0,8.164,0L382.9,309.318c2.257-1.3,2.257-3.409,0-4.709L279.351,244.825a9.028,9.028,0,0,0-8.164,0L107.04,339.651C104.783,340.9,104.783,343.013,107.04,344.294Z" transform="translate(-102.016 -233.72)" fill="#37474f"/>
      <path id="Path_6205" data-name="Path 6205" d="M210.394,411.475l-103.537-59.8c-2.015-1.161-2.229-2.972-.641-4.272a9.139,9.139,0,0,0-3.446,6.631v3.836a9.037,9.037,0,0,0,4.087,7.077l103.537,59.774a8.359,8.359,0,0,0,4.087.975V412.45a8.359,8.359,0,0,1-4.087-.975Z" transform="translate(-101.832 -241.098)" fill="#455a64"/>
      <path id="Path_6206" data-name="Path 6206" d="M391.284,327.275a9.009,9.009,0,0,0,4.077-7.068v-3.836a9.13,9.13,0,0,0-3.446-6.631c1.588,1.3,1.384,3.111-.632,4.272L227.127,408.791a8.359,8.359,0,0,1-4.077.975v13.263a8.359,8.359,0,0,0,4.077-.975Z" transform="translate(-110.402 -238.415)" fill="#263238"/>
      <path id="Path_6207" data-name="Path 6207" d="M166.822,381.124a12.51,12.51,0,0,0,11.34,0c3.13-1.857,3.13-4.737,0-6.548a12.575,12.575,0,0,0-11.34,0C163.729,376.387,163.729,379.322,166.822,381.124Z" transform="translate(-106.23 -242.938)" fill="#263238"/>
      <path id="Path_6208" data-name="Path 6208" d="M228.319,392.355,129.213,335.1c-1.347-.78-1.347-2.053,0-2.833l129.1-74.56a5.415,5.415,0,0,1,4.895,0l99.107,57.257c1.356.78,1.356,2.043,0,2.786l-129.1,74.569a5.414,5.414,0,0,1-4.894.037Z" transform="translate(-103.644 -234.666)" fill="#fff"/>
      <path id="Path_6209" data-name="Path 6209" d="M340.334,281.456a3.185,3.185,0,0,0,2.87,0,.929.929,0,0,0,0-1.662,3.186,3.186,0,0,0-2.87,0A.876.876,0,0,0,340.334,281.456Z" transform="translate(-118.716 -236.257)" fill="#263238"/>
      <path id="Path_6210" data-name="Path 6210" d="M345.229,295.323a6.371,6.371,0,0,0,5.74,0c1.588-.929,1.588-2.405,0-3.316a6.315,6.315,0,0,0-5.74,0C343.64,292.88,343.64,294.4,345.229,295.323Z" transform="translate(-119.022 -237.102)" fill="#263238"/>
      <path id="Path_6211" data-name="Path 6211" d="M339.179,288.359c1.059-.6,1-1.625-.13-2.275l-18.891-10.913a4.375,4.375,0,0,0-3.956-.074c-1.059.613-1,1.635.13,2.285l18.891,10.913a4.374,4.374,0,0,0,3.956.065Z" transform="translate(-116.985 -235.915)" fill="#263238"/>
      <path id="Path_6212" data-name="Path 6212" d="M266.412,273.588c-1.356.78-1.356,2.043,0,2.786l75.507,43.6a5.433,5.433,0,0,0,4.9,0l16.717-9.631L283.129,263.91Z" transform="translate(-113.419 -235.149)" fill="#ebebeb"/>
      <path id="Path_6213" data-name="Path 6213" d="M266.092,282.2l-6.028-3.474a1.792,1.792,0,0,0-1.625,0l-3.8,2.192c-.455.26-.455.678,0,.929l.52.306-1.923,1.022c-.223.121-.2.2.056.176l3.381-.325,3.994,2.3a1.857,1.857,0,0,0,1.635,0l3.789-2.192a.5.5,0,0,0,0-.938Z" transform="translate(-112.542 -236.191)" fill="#ebebeb"/>
      <path id="Path_6214" data-name="Path 6214" d="M268.929,291.838l-.446-.929c-.576-1.217-.929-2.87.743-3.826a4.523,4.523,0,0,1,4.086,0c.873.5,1.068,1.254.585,1.857a4.5,4.5,0,0,1,3.241.334,1.235,1.235,0,0,1,0,2.35c-1.635.929-4.5.762-6.6.437Z" transform="translate(-113.605 -236.766)" fill="#ebebeb"/>
      <path id="Path_6215" data-name="Path 6215" d="M179.822,324.493l75.517,43.6a5.433,5.433,0,0,0,4.9,0l58.809-33.964c1.347-.78,1.347-2.043,0-2.786l-75.517-43.642a5.433,5.433,0,0,0-4.9,0L179.822,321.67C178.466,322.45,178.466,323.713,179.822,324.493Z" transform="translate(-107.249 -236.803)" fill="#ebebeb"/>
      <path id="Path_6216" data-name="Path 6216" d="M179.519,332.188l-6.055-3.483a1.858,1.858,0,0,0-1.635,0l-3.8,2.192a.5.5,0,0,0,0,.929l.529.306-1.923,1.012c-.232.121-.2.2,0,.176l3.381-.316,3.994,2.3a1.858,1.858,0,0,0,1.635,0l3.8-2.2a.492.492,0,0,0,.074-.919Z" transform="translate(-106.371 -239.753)" fill="#ebebeb"/>
      <path id="Path_6217" data-name="Path 6217" d="M182.31,341.817l-.437-.929c-.585-1.217-.929-2.87.743-3.836a4.5,4.5,0,0,1,4.077,0c.929.511,1.077,1.263.585,1.858a4.644,4.644,0,0,1,3.251.334,1.245,1.245,0,0,1,0,2.359c-1.635.929-4.5.762-6.613.437Z" transform="translate(-107.434 -240.326)" fill="#ebebeb"/>
      <path id="Path_6218" data-name="Path 6218" d="M155.469,337.7a5.433,5.433,0,0,1,4.9,0l75.507,43.6c1.356.78,1.356,2.053,0,2.833l-15.408,8.9L140.08,346.583Z" transform="translate(-104.49 -240.365)" fill="#ebebeb"/>
      <path id="Path_6219" data-name="Path 6219" d="M243.7,326.93,200.72,338.474h0l56.2,32.451a5.433,5.433,0,0,0,4.9,0l1.217-.706,24.25-35.58-51.5,10.1Z" transform="translate(-108.811 -239.64)" fill="#e0e0e0"/>
      <path id="Path_6220" data-name="Path 6220" d="M266.2,299.129l-19.773-11.424a5.433,5.433,0,0,0-4.9,0l-22.1,12.77c1.012,1.923,3.1,3.715,6.269,5.266,9.288,4.439,24.408,4.439,33.723,0C263.313,303.884,265.57,301.544,266.2,299.129Z" transform="translate(-110.143 -236.803)" fill="#e0e0e0"/>
      <path id="Path_6221" data-name="Path 6221" d="M354.5,291.283l-99.116-57.248a5.415,5.415,0,0,0-4.895,0l-129.1,74.56c-1.347.78-1.347,2.043,0,2.786l20.953,12.074,78.192,45.165a5.414,5.414,0,0,0,4.895,0l116.205-67.139,12.854-7.43C355.856,293.336,355.856,292.064,354.5,291.283Z" transform="translate(-103.087 -232.979)" fill="#fff" opacity="0.2"/>
      <path id="Path_6222" data-name="Path 6222" d="M354.7,290.839l-81.953-47.366-17.163-9.882a5.888,5.888,0,0,0-5.368,0l-129.1,74.56a1.95,1.95,0,0,0,0,3.641l20.953,12.074L220.3,369.058a5.87,5.87,0,0,0,5.368,0l116.2-67.139,12.863-7.43a1.96,1.96,0,0,0,0-3.65Zm-.474,2.833-12.863,7.43-116.2,67.139a4.96,4.96,0,0,1-4.43,0L142.55,323.085l-20.943-12.074a1.04,1.04,0,0,1,0-2.015l129.1-74.56a4.987,4.987,0,0,1,4.43,0l17.173,9.891,81.953,47.366a1.04,1.04,0,0,1,0,2.015Z" transform="translate(-103.051 -232.943)" fill="#fff"/>
    </g>
  </g>
  <g id="freepik--speech-bubble--inject-29" transform="translate(141.089)">
    <path id="Path_6223" data-name="Path 6223" d="M315.832,45.714c1.365-.789,2.48-.149,2.48,1.43V229.727a5.508,5.508,0,0,1-2.48,4.3l-71.254,41.144-8.359,27.863c-.752,2.526-2.257,2.638-3.353.232l-7.653-16.894-20.8,12.009c-1.365.789-2.48.149-2.48-1.43V114.367a5.489,5.489,0,0,1,2.48-4.3Z" transform="translate(-201.93 -45.376)" fill="#f6db5a"/>
    <path id="Path_6224" data-name="Path 6224" d="M311.227,197.325a7.523,7.523,0,0,1-3.52,5.842L268.56,225.772c-1.941,1.115-3.52.325-3.52-1.783a7.56,7.56,0,0,1,3.52-5.842l39.165-22.6C309.657,194.427,311.227,195.226,311.227,197.325Z" transform="translate(-206.427 -56.04)" fill="#fff"/>
    <path id="Path_6225" data-name="Path 6225" d="M303.966,221.635a7.551,7.551,0,0,1-3.52,5.842l-32.516,18.8c-1.941,1.124-3.511.325-3.511-1.783a7.523,7.523,0,0,1,3.511-5.833l32.553-18.8C302.424,218.737,303.966,219.536,303.966,221.635Z" transform="translate(-206.382 -57.772)" fill="#fff"/>
    <path id="Path_6226" data-name="Path 6226" d="M241.869,253.819l-.084-1.1c-1.774,4.477-4.449,7.69-7.43,9.408-5.266,3.046-9.975.344-9.975-7.718,0-7.6,3.715-15.928,9.5-19.244,3.8-2.192,6.39-.576,6.817.381v-1.857a4.543,4.543,0,0,1,2.331-3.213c1.282-.743,2.34-.065,2.34,1.523v17.228c0,2.192.817,2.638,1.978,1.96,2.118-1.217,4.068-6.427,4.068-12.362,0-11.461-6.009-16.8-15.594-11.266-8.981,5.182-16.1,18.278-16.1,29.72,0,11.229,6.733,15.51,15.547,10.43a26.07,26.07,0,0,0,6.631-5.9c1-1.226,2.1-1.6,2.582-.724s.186,2.675-.808,3.9a33.919,33.919,0,0,1-8.359,7.5c-10.969,6.325-19.262.808-19.262-13.068,0-14.173,8.684-30.064,19.82-36.5s19.3-.715,19.3,13.625c0,8.693-3.409,16.309-8.247,19.1C244.247,257.116,242.343,256.772,241.869,253.819Zm-12.436-2.61c0,4.439,2.155,6.873,5.442,4.978s5.572-6.761,5.572-11.247c0-4.319-2.2-6.5-5.619-4.532-3.241,1.839-5.4,6.548-5.4,10.8Z" transform="translate(-202.936 -57.84)" fill="#fff"/>
  </g>
  <g id="freepik--Character--inject-29" transform="translate(164.438 54.317)">
    <path id="Path_6227" data-name="Path 6227" d="M261.889,108.634c19.234-11.145,34.819-2.1,34.819,20.107s-15.584,49.224-34.819,60.313-34.819,2.1-34.819-20.107S242.654,119.779,261.889,108.634Z" transform="translate(-227.07 -103.86)" fill="#fff"/>
    <path id="Path_6228" data-name="Path 6228" d="M261.889,108.634c19.234-11.145,34.819-2.1,34.819,20.107s-15.584,49.224-34.819,60.313-34.819,2.1-34.819-20.107S242.654,119.779,261.889,108.634Z" transform="translate(-227.07 -103.86)" fill="#f5f5f5"/>
    <g id="Group_1222" data-name="Group 1222" transform="translate(0 0)" clip-path="url(#clip-path)">
      <path id="Path_6229" data-name="Path 6229" d="M250.5,140.75a6.232,6.232,0,0,0-3.975,2.47c-1.709,2.2-1.356,5.34,0,12.408l5.285-.808Z" transform="translate(-228.374 -106.489)" fill="#263238"/>
      <path id="Path_6230" data-name="Path 6230" d="M283.806,129.393a10.216,10.216,0,0,0,3.306-1.56c1.625-1.365,2.043.371,1.152,2.21a10.876,10.876,0,0,1-6.12,5.721c-.056-.223-1.523-3.715-1.523-3.715Z" transform="translate(-230.885 -105.533)" fill="#263238"/>
      <path id="Path_6231" data-name="Path 6231" d="M252.949,179.206s-9.845,6.353-11.981,8.591-3.018,9.213-3.808,17.748c0,0,11.21,4.727,28.791-3.975s19.169-15.584,19.169-15.584-2.275-10.337-3.121-13.207c-1.068-3.631-3.13-6.25-15.12-.808Z" transform="translate(-227.789 -108.491)" fill="#263238"/>
      <path id="Path_6232" data-name="Path 6232" d="M252.873,153.669c-.789.678-1.9-.529-2.87-1.282s-4.124-1.291-5.7,2.452,2.043,7.328,4.179,8.247a4.086,4.086,0,0,0,4.393-.8l.557,14.071s2.786,4.82,10.4,3.817,6.028-8.656,3.539-11.052v-2.9s3.929-.26,5.777-1.245c.994-.529,3.353-4.021,4.876-7.625a31.42,31.42,0,0,0,2.025-21.278c-2.721-10.848-15.157-7.867-22.569-1.217S252.873,153.669,252.873,153.669Z" transform="translate(-228.27 -105.644)" fill="#ffa8a7"/>
      <path id="Path_6233" data-name="Path 6233" d="M283.469,117.727c-.669-2.192-1.077-1.8-6.455,1.978a42.853,42.853,0,0,1-13.541,6.343c-3.789,1.152-8.972,2.062-11.637,5.573a8.155,8.155,0,0,0-1.653,5.266,1.857,1.857,0,0,0-.8-.437,3.346,3.346,0,0,0-3.594,2.145l4.644,1.235c-.362,2.675-1.4,10.931-.269,11.656.975.622,2.47,2.712,2.87,2.6,1.328-.381,1.857-6.269,2.582-9.835.789-4.059,1.1-5.573,2.554-5.74a82.271,82.271,0,0,0,13.931-3.464c5.015-1.96,6.455-3.622,6.455-3.622l2.675-1.7A14.99,14.99,0,0,0,283.469,117.727Z" transform="translate(-228.404 -104.753)" fill="#263238"/>
      <path id="Path_6234" data-name="Path 6234" d="M268.162,168.888s-7.031.474-9.483-.176a5.5,5.5,0,0,1-3.4-2.452,8.043,8.043,0,0,0,1.932,3.446c1.793,1.857,10.95,1.059,10.95,1.059Z" transform="translate(-229.08 -108.306)" fill="#f28f8f"/>
      <path id="Path_6235" data-name="Path 6235" d="M267.212,160.3l3.213.344a2.257,2.257,0,0,1-2.183,1.653C267.352,162.2,266.9,161.312,267.212,160.3Z" transform="translate(-229.923 -107.882)" fill="#f28f8f"/>
      <path id="Path_6236" data-name="Path 6236" d="M272.22,146.8l.464,8.349,4.43-2.684Z" transform="translate(-230.287 -106.92)" fill="#f28f8f"/>
      <path id="Path_6237" data-name="Path 6237" d="M267.114,149.912a1.987,1.987,0,0,1-1.4,1.857,1.068,1.068,0,0,1-1.412-1.087,2,2,0,0,1,1.412-1.858,1.059,1.059,0,0,1,1.4,1.087Z" transform="translate(-229.722 -107.06)" fill="#263238"/>
      <path id="Path_6238" data-name="Path 6238" d="M265.475,144.643l-3.009,2.47a2.145,2.145,0,0,1,.706-2.591,1.486,1.486,0,0,1,2.3.121Z" transform="translate(-229.579 -106.723)" fill="#263238"/>
      <path id="Path_6239" data-name="Path 6239" d="M280.646,141.7l-2.786-1.375a1.978,1.978,0,0,1,2.4-1.012,1.644,1.644,0,0,1,.39,2.387Z" transform="translate(-230.689 -106.379)" fill="#263238"/>
      <path id="Path_6240" data-name="Path 6240" d="M279.784,146.082a2.006,2.006,0,0,1-1.4,1.858,1.068,1.068,0,0,1-1.412-1.087A2,2,0,0,1,278.382,145a1.059,1.059,0,0,1,1.4,1.087Z" transform="translate(-230.625 -106.787)" fill="#263238"/>
    </g>
  </g>
</svg>
