<svg id="phone" xmlns="http://www.w3.org/2000/svg" width="26" height="26.047" viewBox="0 0 26 26.047">
  <path id="phone-2" data-name="phone" d="M23.548,27.047c-.107,0-.215,0-.321-.014l-.021,0A24.816,24.816,0,0,1,12.441,23.2a24.509,24.509,0,0,1-7.484-7.484A24.814,24.814,0,0,1,1.128,4.9l0-.019A3.563,3.563,0,0,1,4.672,1H8.26a3.58,3.58,0,0,1,3.528,3.065v.011a14.084,14.084,0,0,0,.767,3.078,3.573,3.573,0,0,1-.8,3.757l0,0-.852.852a17.831,17.831,0,0,0,5.447,5.447l.852-.852,0,0a3.563,3.563,0,0,1,3.759-.8,14.078,14.078,0,0,0,3.075.766h.011a3.563,3.563,0,0,1,3.065,3.6v3.55a3.564,3.564,0,0,1-3.563,3.573Zm-.1-2.38a1.188,1.188,0,0,0,1.286-1.189V19.91q0-.015,0-.029a1.188,1.188,0,0,0-1.017-1.205,16.462,16.462,0,0,1-3.591-.9,1.187,1.187,0,0,0-1.254.265l-1.506,1.506a1.188,1.188,0,0,1-1.427.193,20.2,20.2,0,0,1-7.572-7.572,1.188,1.188,0,0,1,.193-1.427l1.506-1.506a1.191,1.191,0,0,0,.265-1.251,16.469,16.469,0,0,1-.9-3.593A1.193,1.193,0,0,0,8.26,3.376H4.673A1.188,1.188,0,0,0,3.492,4.663,22.427,22.427,0,0,0,6.953,14.43l.006.009A22.119,22.119,0,0,0,13.72,21.2l.009.006A22.428,22.428,0,0,0,23.45,24.667Z" transform="translate(-1.112 -1)" fill="#f6db5a"/>
</svg>
